<svg xmlns="http://www.w3.org/2000/svg" xmlns:xlink="http://www.w3.org/1999/xlink" width="500" zoomAndPan="magnify" viewBox="0 0 375 374.999991" height="500" preserveAspectRatio="xMidYMid meet" version="1.0"><defs><filter x="0%" y="0%" width="100%" height="100%" id="e52789a843"><feColorMatrix values="0 0 0 0 1 0 0 0 0 1 0 0 0 0 1 0 0 0 1 0" color-interpolation-filters="sRGB"/></filter><g/><clipPath id="0f9a59a844"><path d="M 37.5 37.5 L 337.5 37.5 L 337.5 337.5 L 37.5 337.5 Z M 37.5 37.5 " clip-rule="nonzero"/></clipPath><mask id="a76b05d627"><g filter="url(#e52789a843)"><rect x="-37.5" width="450" fill="#000000" y="-37.499999" height="449.999989" fill-opacity="0.75"/></g></mask><clipPath id="9829f66b87"><path d="M 1.113281 95 L 88 95 L 88 118 L 1.113281 118 Z M 1.113281 95 " clip-rule="nonzero"/></clipPath><clipPath id="34646119bc"><path d="M 66 39 L 121.863281 39 L 121.863281 126.46875 L 66 126.46875 Z M 66 39 " clip-rule="nonzero"/></clipPath><clipPath id="500d161749"><path d="M 23 0.46875 L 83 0.46875 L 83 93 L 23 93 Z M 23 0.46875 " clip-rule="nonzero"/></clipPath><clipPath id="62a8d2eaff"><rect x="0" width="122" y="0" height="127"/></clipPath></defs><rect x="-37.5" width="450" fill="#ffffff" y="-37.499999" height="449.999989" fill-opacity="1"/><rect x="-37.5" width="450" fill="#000000" y="-37.499999" height="449.999989" fill-opacity="1"/><g clip-path="url(#0f9a59a844)"><path fill="#587dff" d="M 187.476562 337.433594 C 104.78125 337.433594 37.492188 270.15625 37.492188 187.449219 C 37.492188 104.742188 104.78125 37.472656 187.476562 37.472656 C 270.175781 37.472656 337.464844 104.75 337.464844 187.457031 C 337.464844 270.164062 270.183594 337.441406 187.476562 337.441406 Z M 187.476562 44.6875 C 108.757812 44.691406 44.714844 108.730469 44.714844 187.449219 C 44.714844 266.167969 108.757812 330.214844 187.476562 330.214844 C 266.199219 330.214844 330.242188 266.167969 330.242188 187.449219 C 330.242188 108.730469 266.199219 44.691406 187.476562 44.691406 Z M 187.476562 44.6875 " fill-opacity="1" fill-rule="nonzero"/></g><path fill="#67dcff" d="M 72.121094 187.449219 C 69.023438 130.632812 111.292969 78.988281 167.121094 69.058594 C 208.898438 60.789062 254.058594 77.191406 281.011719 110.136719 C 334.90625 174.609375 306.90625 274.265625 226.945312 300.53125 C 192.433594 312.070312 152.605469 306.335938 123.136719 284.960938 C 113.496094 278.164062 104.886719 269.492188 97.859375 260.082031 C 97.738281 259.921875 97.773438 259.699219 97.933594 259.574219 C 98.085938 259.460938 98.308594 259.488281 98.429688 259.632812 C 105.292969 267.960938 113.410156 275.558594 122.308594 281.679688 C 146.347656 298.464844 176.914062 305.203125 205.816406 300.464844 C 269.78125 290.457031 313.15625 226.917969 299.289062 163.695312 C 291.503906 125.96875 263.4375 93.390625 227.242188 80.175781 C 168.253906 58.015625 101.328125 88.914062 79.828125 148.132812 C 75.242188 160.699219 72.921875 174.066406 72.859375 187.449219 C 72.859375 187.652344 72.691406 187.808594 72.496094 187.808594 C 72.300781 187.808594 72.136719 187.644531 72.136719 187.449219 Z M 72.121094 187.449219 " fill-opacity="1" fill-rule="nonzero"/><g mask="url(#a76b05d627)"><g transform="matrix(1, 0, 0, 1, 126, 82)"><g clip-path="url(#62a8d2eaff)"><g clip-path="url(#9829f66b87)"><path fill="#67dcff" d="M 12.023438 95.742188 L 77.453125 95.742188 L 87.8125 117.460938 L 1.117188 117.460938 L 12.023438 95.742188 " fill-opacity="1" fill-rule="evenodd"/></g><g clip-path="url(#34646119bc)"><path fill="#587dff" d="M 113.441406 108.082031 L 121.890625 126.59375 L 96.265625 126.59375 L 66.820312 64.644531 L 79.636719 39.46875 L 113.441406 108.082031 " fill-opacity="1" fill-rule="evenodd"/></g><g clip-path="url(#500d161749)"><path fill="#2720ff" d="M 53.464844 82.910156 L 49.101562 92.039062 L 23.203125 92.039062 L 69.820312 0.472656 L 82.363281 26.140625 L 53.464844 82.910156 " fill-opacity="1" fill-rule="evenodd"/></g></g></g></g><g fill="#ffffff" fill-opacity="0.4"><g transform="translate(130.629196, 240.537831)"><g><path d="M 17.546875 -4.421875 L 7.90625 -4.421875 L 6.125 0 L -0.453125 0 L 9.609375 -22.796875 L 15.953125 -22.796875 L 26.046875 0 L 19.34375 0 Z M 15.65625 -9.1875 L 12.734375 -16.484375 L 9.796875 -9.1875 Z M 15.65625 -9.1875 "/></g></g></g><g fill="#ffffff" fill-opacity="0.4"><g transform="translate(154.035528, 240.537831)"><g><path d="M 17.546875 -4.421875 L 7.90625 -4.421875 L 6.125 0 L -0.453125 0 L 9.609375 -22.796875 L 15.953125 -22.796875 L 26.046875 0 L 19.34375 0 Z M 15.65625 -9.1875 L 12.734375 -16.484375 L 9.796875 -9.1875 Z M 15.65625 -9.1875 "/></g></g></g><g fill="#ffffff" fill-opacity="0.4"><g transform="translate(177.44186, 240.537831)"><g><path d="M 11.078125 -8.265625 L 8.65625 -5.703125 L 8.65625 0 L 2.28125 0 L 2.28125 -22.796875 L 8.65625 -22.796875 L 8.65625 -13.3125 L 17.484375 -22.796875 L 24.578125 -22.796875 L 15.265625 -12.703125 L 25.078125 0 L 17.578125 0 Z M 11.078125 -8.265625 "/></g></g></g><g fill="#ffffff" fill-opacity="0.4"><g transform="translate(199.741333, 240.537831)"><g><path d="M 17.546875 -4.421875 L 7.90625 -4.421875 L 6.125 0 L -0.453125 0 L 9.609375 -22.796875 L 15.953125 -22.796875 L 26.046875 0 L 19.34375 0 Z M 15.65625 -9.1875 L 12.734375 -16.484375 L 9.796875 -9.1875 Z M 15.65625 -9.1875 "/></g></g></g><g fill="#ffffff" fill-opacity="0.4"><g transform="translate(223.147664, 240.537831)"><g><path d="M 12.25 -6.0625 L 8.734375 -6.0625 L 8.734375 0 L 2.28125 0 L 2.28125 -22.796875 L 12.703125 -22.796875 C 14.765625 -22.796875 16.550781 -22.453125 18.0625 -21.765625 C 19.582031 -21.085938 20.753906 -20.113281 21.578125 -18.84375 C 22.410156 -17.570312 22.828125 -16.078125 22.828125 -14.359375 C 22.828125 -12.710938 22.441406 -11.273438 21.671875 -10.046875 C 20.898438 -8.816406 19.796875 -7.851562 18.359375 -7.15625 L 23.28125 0 L 16.375 0 Z M 16.3125 -14.359375 C 16.3125 -15.421875 15.972656 -16.242188 15.296875 -16.828125 C 14.628906 -17.421875 13.632812 -17.71875 12.3125 -17.71875 L 8.734375 -17.71875 L 8.734375 -11.03125 L 12.3125 -11.03125 C 13.632812 -11.03125 14.628906 -11.316406 15.296875 -11.890625 C 15.972656 -12.472656 16.3125 -13.296875 16.3125 -14.359375 Z M 16.3125 -14.359375 "/></g></g></g><g fill="#ffffff" fill-opacity="1"><g transform="translate(129.190146, 239.098784)"><g><path d="M 17.546875 -4.421875 L 7.90625 -4.421875 L 6.125 0 L -0.453125 0 L 9.609375 -22.796875 L 15.953125 -22.796875 L 26.046875 0 L 19.34375 0 Z M 15.65625 -9.1875 L 12.734375 -16.484375 L 9.796875 -9.1875 Z M 15.65625 -9.1875 "/></g></g></g><g fill="#ffffff" fill-opacity="1"><g transform="translate(152.596479, 239.098784)"><g><path d="M 17.546875 -4.421875 L 7.90625 -4.421875 L 6.125 0 L -0.453125 0 L 9.609375 -22.796875 L 15.953125 -22.796875 L 26.046875 0 L 19.34375 0 Z M 15.65625 -9.1875 L 12.734375 -16.484375 L 9.796875 -9.1875 Z M 15.65625 -9.1875 "/></g></g></g><g fill="#ffffff" fill-opacity="1"><g transform="translate(176.002811, 239.098784)"><g><path d="M 11.078125 -8.265625 L 8.65625 -5.703125 L 8.65625 0 L 2.28125 0 L 2.28125 -22.796875 L 8.65625 -22.796875 L 8.65625 -13.3125 L 17.484375 -22.796875 L 24.578125 -22.796875 L 15.265625 -12.703125 L 25.078125 0 L 17.578125 0 Z M 11.078125 -8.265625 "/></g></g></g><g fill="#ffffff" fill-opacity="1"><g transform="translate(198.302283, 239.098784)"><g><path d="M 17.546875 -4.421875 L 7.90625 -4.421875 L 6.125 0 L -0.453125 0 L 9.609375 -22.796875 L 15.953125 -22.796875 L 26.046875 0 L 19.34375 0 Z M 15.65625 -9.1875 L 12.734375 -16.484375 L 9.796875 -9.1875 Z M 15.65625 -9.1875 "/></g></g></g><g fill="#ffffff" fill-opacity="1"><g transform="translate(221.708614, 239.098784)"><g><path d="M 12.25 -6.0625 L 8.734375 -6.0625 L 8.734375 0 L 2.28125 0 L 2.28125 -22.796875 L 12.703125 -22.796875 C 14.765625 -22.796875 16.550781 -22.453125 18.0625 -21.765625 C 19.582031 -21.085938 20.753906 -20.113281 21.578125 -18.84375 C 22.410156 -17.570312 22.828125 -16.078125 22.828125 -14.359375 C 22.828125 -12.710938 22.441406 -11.273438 21.671875 -10.046875 C 20.898438 -8.816406 19.796875 -7.851562 18.359375 -7.15625 L 23.28125 0 L 16.375 0 Z M 16.3125 -14.359375 C 16.3125 -15.421875 15.972656 -16.242188 15.296875 -16.828125 C 14.628906 -17.421875 13.632812 -17.71875 12.3125 -17.71875 L 8.734375 -17.71875 L 8.734375 -11.03125 L 12.3125 -11.03125 C 13.632812 -11.03125 14.628906 -11.316406 15.296875 -11.890625 C 15.972656 -12.472656 16.3125 -13.296875 16.3125 -14.359375 Z M 16.3125 -14.359375 "/></g></g></g></svg>